<mxfile host="app.diagrams.net" modified="2023-09-08T07:41:06.869Z" agent="Mozilla/5.0 (Windows NT 10.0; Win64; x64) AppleWebKit/537.36 (KHTML, like Gecko) Chrome/118.0.0.0 Safari/537.36 Edg/118.0.0.0" etag="AaUXAEaQQ_X2W0McFqlE" version="21.7.2" type="github">
  <diagram name="Page-1" id="52a04d89-c75d-2922-d76d-85b35f80e030">
    <mxGraphModel dx="679" dy="378" grid="1" gridSize="10" guides="1" tooltips="1" connect="1" arrows="1" fold="1" page="1" pageScale="1" pageWidth="1100" pageHeight="850" background="none" math="0" shadow="0">
      <root>
        <mxCell id="0" />
        <mxCell id="1" parent="0" />
        <mxCell id="17472293e6e8944d-30" value="&lt;div style=&quot;font-size: 9px;&quot;&gt;&lt;font face=&quot;Helvetica&quot;&gt;&lt;font style=&quot;font-size: 9px;&quot;&gt;一个Encoder-only网络提&lt;span style=&quot;background-color: initial;&quot;&gt;取文本情感,生成人物基&lt;/span&gt;&lt;span style=&quot;background-color: initial;&quot;&gt;本情态,以此为指导生成&lt;/span&gt;&lt;/font&gt;&lt;span style=&quot;background-color: initial;&quot;&gt;整体面部&lt;/span&gt;&lt;/font&gt;&lt;/div&gt;" style="whiteSpace=wrap;html=1;rounded=0;shadow=0;comic=0;labelBackgroundColor=none;strokeWidth=1;fontFamily=Verdana;fontSize=12;align=center;" parent="1" vertex="1">
          <mxGeometry x="60" y="55" width="120" height="50" as="geometry" />
        </mxCell>
        <mxCell id="AbtOcqPoXlx7tOaCeh6E-1" value="&lt;div style=&quot;font-size: 9px;&quot;&gt;&lt;div&gt;一个Decoder-only网络提取人&lt;span style=&quot;background-color: initial;&quot;&gt;物形象关键待征向量，生成扩&lt;/span&gt;&lt;span style=&quot;background-color: initial;&quot;&gt;散模型的prompt,生成局部五官&lt;/span&gt;&lt;span style=&quot;background-color: initial;&quot;&gt;样式&lt;/span&gt;&lt;/div&gt;&lt;/div&gt;" style="whiteSpace=wrap;html=1;rounded=0;shadow=0;comic=0;labelBackgroundColor=none;strokeWidth=1;fontFamily=Verdana;fontSize=12;align=center;" vertex="1" parent="1">
          <mxGeometry x="190" y="55" width="120" height="50" as="geometry" />
        </mxCell>
        <mxCell id="AbtOcqPoXlx7tOaCeh6E-3" value="&lt;div style=&quot;font-size: 9px;&quot;&gt;&lt;div style=&quot;&quot;&gt;&lt;font style=&quot;font-size: 9px;&quot;&gt;一个Encoder-Decoder网络&lt;/font&gt;&lt;span style=&quot;background-color: initial;&quot;&gt;翻译环境背景文本，作为&lt;/span&gt;&lt;font style=&quot;background-color: initial;&quot;&gt;专家网络的输入指导扩散&lt;/font&gt;&lt;span style=&quot;background-color: initial;&quot;&gt;模型生成面部细节&lt;/span&gt;&lt;/div&gt;&lt;/div&gt;" style="whiteSpace=wrap;html=1;rounded=0;shadow=0;comic=0;labelBackgroundColor=none;strokeWidth=1;fontFamily=Verdana;fontSize=12;align=center;" vertex="1" parent="1">
          <mxGeometry x="320" y="55" width="120" height="50" as="geometry" />
        </mxCell>
        <mxCell id="AbtOcqPoXlx7tOaCeh6E-4" value="&lt;font face=&quot;Helvetica&quot;&gt;案发现场环境描述&lt;/font&gt;" style="whiteSpace=wrap;html=1;rounded=0;shadow=0;comic=0;labelBackgroundColor=none;strokeWidth=1;fontFamily=Verdana;fontSize=12;align=center;" vertex="1" parent="1">
          <mxGeometry x="40" y="170" width="120" height="60" as="geometry" />
        </mxCell>
        <mxCell id="AbtOcqPoXlx7tOaCeh6E-6" value="" style="shape=cube;whiteSpace=wrap;html=1;boundedLbl=1;backgroundOutline=1;darkOpacity=0.05;darkOpacity2=0.1;size=10;" vertex="1" parent="1">
          <mxGeometry x="490" y="300" width="30" height="30" as="geometry" />
        </mxCell>
        <mxCell id="AbtOcqPoXlx7tOaCeh6E-7" value="" style="shape=cube;whiteSpace=wrap;html=1;boundedLbl=1;backgroundOutline=1;darkOpacity=0.05;darkOpacity2=0.1;size=10;" vertex="1" parent="1">
          <mxGeometry x="490" y="280" width="30" height="30" as="geometry" />
        </mxCell>
        <mxCell id="AbtOcqPoXlx7tOaCeh6E-8" value="" style="shape=cube;whiteSpace=wrap;html=1;boundedLbl=1;backgroundOutline=1;darkOpacity=0.05;darkOpacity2=0.1;size=10;" vertex="1" parent="1">
          <mxGeometry x="490" y="260" width="30" height="30" as="geometry" />
        </mxCell>
        <mxCell id="AbtOcqPoXlx7tOaCeh6E-9" value="" style="shape=cube;whiteSpace=wrap;html=1;boundedLbl=1;backgroundOutline=1;darkOpacity=0.05;darkOpacity2=0.1;size=10;" vertex="1" parent="1">
          <mxGeometry x="490" y="240" width="30" height="30" as="geometry" />
        </mxCell>
        <mxCell id="AbtOcqPoXlx7tOaCeh6E-10" value="" style="shape=cube;whiteSpace=wrap;html=1;boundedLbl=1;backgroundOutline=1;darkOpacity=0.05;darkOpacity2=0.1;size=10;" vertex="1" parent="1">
          <mxGeometry x="490" y="220" width="30" height="30" as="geometry" />
        </mxCell>
        <mxCell id="AbtOcqPoXlx7tOaCeh6E-11" value="" style="shape=cube;whiteSpace=wrap;html=1;boundedLbl=1;backgroundOutline=1;darkOpacity=0.05;darkOpacity2=0.1;size=10;" vertex="1" parent="1">
          <mxGeometry x="490" y="200" width="30" height="30" as="geometry" />
        </mxCell>
        <mxCell id="AbtOcqPoXlx7tOaCeh6E-12" value="" style="shape=cube;whiteSpace=wrap;html=1;boundedLbl=1;backgroundOutline=1;darkOpacity=0.05;darkOpacity2=0.1;size=10;" vertex="1" parent="1">
          <mxGeometry x="490" y="180" width="30" height="30" as="geometry" />
        </mxCell>
        <mxCell id="AbtOcqPoXlx7tOaCeh6E-13" value="" style="shape=cube;whiteSpace=wrap;html=1;boundedLbl=1;backgroundOutline=1;darkOpacity=0.05;darkOpacity2=0.1;size=10;" vertex="1" parent="1">
          <mxGeometry x="550" y="300" width="30" height="30" as="geometry" />
        </mxCell>
        <mxCell id="AbtOcqPoXlx7tOaCeh6E-14" value="" style="shape=cube;whiteSpace=wrap;html=1;boundedLbl=1;backgroundOutline=1;darkOpacity=0.05;darkOpacity2=0.1;size=10;" vertex="1" parent="1">
          <mxGeometry x="550" y="280" width="30" height="30" as="geometry" />
        </mxCell>
        <mxCell id="AbtOcqPoXlx7tOaCeh6E-15" value="" style="shape=cube;whiteSpace=wrap;html=1;boundedLbl=1;backgroundOutline=1;darkOpacity=0.05;darkOpacity2=0.1;size=10;" vertex="1" parent="1">
          <mxGeometry x="550" y="260" width="30" height="30" as="geometry" />
        </mxCell>
        <mxCell id="AbtOcqPoXlx7tOaCeh6E-16" value="" style="shape=cube;whiteSpace=wrap;html=1;boundedLbl=1;backgroundOutline=1;darkOpacity=0.05;darkOpacity2=0.1;size=10;" vertex="1" parent="1">
          <mxGeometry x="550" y="240" width="30" height="30" as="geometry" />
        </mxCell>
        <mxCell id="AbtOcqPoXlx7tOaCeh6E-17" value="" style="shape=cube;whiteSpace=wrap;html=1;boundedLbl=1;backgroundOutline=1;darkOpacity=0.05;darkOpacity2=0.1;size=10;" vertex="1" parent="1">
          <mxGeometry x="550" y="220" width="30" height="30" as="geometry" />
        </mxCell>
        <mxCell id="AbtOcqPoXlx7tOaCeh6E-18" value="" style="shape=cube;whiteSpace=wrap;html=1;boundedLbl=1;backgroundOutline=1;darkOpacity=0.05;darkOpacity2=0.1;size=10;" vertex="1" parent="1">
          <mxGeometry x="550" y="200" width="30" height="30" as="geometry" />
        </mxCell>
        <mxCell id="AbtOcqPoXlx7tOaCeh6E-19" value="" style="shape=cube;whiteSpace=wrap;html=1;boundedLbl=1;backgroundOutline=1;darkOpacity=0.05;darkOpacity2=0.1;size=10;" vertex="1" parent="1">
          <mxGeometry x="550" y="180" width="30" height="30" as="geometry" />
        </mxCell>
        <mxCell id="AbtOcqPoXlx7tOaCeh6E-20" value="" style="shape=cube;whiteSpace=wrap;html=1;boundedLbl=1;backgroundOutline=1;darkOpacity=0.05;darkOpacity2=0.1;size=10;" vertex="1" parent="1">
          <mxGeometry x="620" y="300" width="30" height="30" as="geometry" />
        </mxCell>
        <mxCell id="AbtOcqPoXlx7tOaCeh6E-21" value="" style="shape=cube;whiteSpace=wrap;html=1;boundedLbl=1;backgroundOutline=1;darkOpacity=0.05;darkOpacity2=0.1;size=10;" vertex="1" parent="1">
          <mxGeometry x="620" y="280" width="30" height="30" as="geometry" />
        </mxCell>
        <mxCell id="AbtOcqPoXlx7tOaCeh6E-22" value="" style="shape=cube;whiteSpace=wrap;html=1;boundedLbl=1;backgroundOutline=1;darkOpacity=0.05;darkOpacity2=0.1;size=10;" vertex="1" parent="1">
          <mxGeometry x="620" y="260" width="30" height="30" as="geometry" />
        </mxCell>
        <mxCell id="AbtOcqPoXlx7tOaCeh6E-23" value="" style="shape=cube;whiteSpace=wrap;html=1;boundedLbl=1;backgroundOutline=1;darkOpacity=0.05;darkOpacity2=0.1;size=10;" vertex="1" parent="1">
          <mxGeometry x="620" y="240" width="30" height="30" as="geometry" />
        </mxCell>
        <mxCell id="AbtOcqPoXlx7tOaCeh6E-24" value="" style="shape=cube;whiteSpace=wrap;html=1;boundedLbl=1;backgroundOutline=1;darkOpacity=0.05;darkOpacity2=0.1;size=10;" vertex="1" parent="1">
          <mxGeometry x="620" y="220" width="30" height="30" as="geometry" />
        </mxCell>
        <mxCell id="AbtOcqPoXlx7tOaCeh6E-25" value="" style="shape=cube;whiteSpace=wrap;html=1;boundedLbl=1;backgroundOutline=1;darkOpacity=0.05;darkOpacity2=0.1;size=10;" vertex="1" parent="1">
          <mxGeometry x="620" y="200" width="30" height="30" as="geometry" />
        </mxCell>
        <mxCell id="AbtOcqPoXlx7tOaCeh6E-26" value="" style="shape=cube;whiteSpace=wrap;html=1;boundedLbl=1;backgroundOutline=1;darkOpacity=0.05;darkOpacity2=0.1;size=10;" vertex="1" parent="1">
          <mxGeometry x="620" y="180" width="30" height="30" as="geometry" />
        </mxCell>
        <mxCell id="AbtOcqPoXlx7tOaCeh6E-27" value="Embedding" style="rounded=1;whiteSpace=wrap;html=1;" vertex="1" parent="1">
          <mxGeometry x="530" y="360" width="120" height="60" as="geometry" />
        </mxCell>
        <mxCell id="AbtOcqPoXlx7tOaCeh6E-29" value="Encoder" style="shape=cube;whiteSpace=wrap;html=1;boundedLbl=1;backgroundOutline=1;darkOpacity=0.05;darkOpacity2=0.1;size=10;" vertex="1" parent="1">
          <mxGeometry x="420" y="340" width="80" height="40" as="geometry" />
        </mxCell>
        <mxCell id="AbtOcqPoXlx7tOaCeh6E-30" value="Decoder" style="shape=cube;whiteSpace=wrap;html=1;boundedLbl=1;backgroundOutline=1;darkOpacity=0.05;darkOpacity2=0.1;size=10;" vertex="1" parent="1">
          <mxGeometry x="420" y="405" width="80" height="40" as="geometry" />
        </mxCell>
      </root>
    </mxGraphModel>
  </diagram>
</mxfile>
